<svg id="svg" version="1.1" width="400.02" height="379.77" xmlns="http://www.w3.org/2000/svg" xmlns:xlink="http://www.w3.org/1999/xlink" ><g id="svgg"><path id="path0" d="M189.800 0.287 C 148.018 6.099,137.114 69.458,175.660 82.449 C 195.799 89.236,217.678 73.468,216.741 52.841 C 216.190 40.714,200.564 41.200,199.179 53.388 C 197.115 71.553,174.479 70.880,170.159 52.526 C 165.872 34.308,180.662 16.055,198.680 17.327 C 226.659 19.301,238.981 49.752,223.733 79.239 C 214.865 96.390,199.565 106.284,181.380 106.630 C 171.214 106.823,167.461 109.454,168.086 115.951 C 168.724 122.598,174.132 124.971,186.400 123.990 C 239.311 119.756,268.551 48.233,231.586 13.460 C 220.782 3.296,204.673 -1.782,189.800 0.287 M133.185 73.128 C 102.083 86.430,76.657 108.528,60.212 136.551 C 57.877 140.530,52.400 151.608,52.400 152.353 C 52.400 153.168,51.566 153.212,49.114 152.527 C 33.090 148.049,13.469 157.892,5.113 174.600 C -0.708 186.238,-1.697 204.133,2.807 216.291 C 9.911 235.462,27.913 246.981,46.431 244.204 L 48.213 243.937 50.547 250.069 C 61.997 280.142,83.660 305.725,112.585 323.331 C 117.125 326.094,133.267 334.399,134.100 334.400 C 134.265 334.400,134.400 332.398,134.400 329.951 C 134.400 325.508,135.156 319.177,136.137 315.400 L 136.656 313.400 131.865 310.869 C 100.296 294.191,79.130 270.059,68.150 238.224 C 62.458 221.722,58.083 218.095,48.796 222.178 C 33.883 228.734,20.277 217.214,20.239 198.000 C 20.198 177.536,36.765 165.698,51.353 175.767 C 58.353 180.597,65.146 175.558,70.990 161.200 C 84.048 129.113,112.526 102.356,147.400 89.405 C 149.600 88.588,151.458 87.865,151.529 87.797 C 151.601 87.730,150.611 86.564,149.329 85.207 C 146.522 82.234,142.634 76.642,141.026 73.265 C 139.594 70.256,139.888 70.262,133.185 73.128 M263.414 72.472 C 263.313 72.763,262.863 74.472,262.414 76.272 C 261.503 79.921,259.631 85.403,258.159 88.732 C 257.626 89.937,257.239 90.972,257.299 91.032 C 257.359 91.093,259.567 92.121,262.204 93.318 C 293.225 107.391,316.587 131.200,329.200 161.600 C 335.074 175.756,341.711 180.585,348.647 175.750 C 367.853 162.361,388.081 188.473,376.727 212.000 C 371.474 222.887,361.690 226.788,351.204 222.178 C 341.917 218.095,337.542 221.722,331.850 238.224 C 320.625 270.768,296.861 297.205,265.152 312.422 L 263.304 313.309 263.858 315.430 C 264.869 319.301,265.595 325.342,265.598 329.900 C 265.599 332.375,265.735 334.400,265.900 334.400 C 266.733 334.399,282.875 326.094,287.415 323.331 C 316.340 305.725,338.003 280.142,349.453 250.069 L 351.787 243.937 353.569 244.204 C 372.087 246.981,390.089 235.462,397.193 216.291 C 401.697 204.133,400.708 186.238,394.887 174.600 C 386.524 157.877,366.916 148.051,350.856 152.535 C 347.820 153.382,348.409 153.888,345.779 148.172 C 331.301 116.710,304.460 90.436,271.200 75.168 C 264.247 71.976,263.656 71.772,263.414 72.472 M149.332 202.760 C 137.072 205.907,135.276 222.844,146.610 228.421 C 149.490 229.838,156.117 229.857,158.800 228.456 C 173.190 220.943,165.008 198.737,149.332 202.760 M242.926 203.116 C 227.142 208.772,232.768 231.825,249.382 229.570 C 262.644 227.770,265.346 209.814,253.261 203.786 C 250.368 202.343,245.894 202.053,242.926 203.116 M191.400 272.828 C 166.088 274.626,152.411 282.995,163.291 290.028 C 164.637 290.898,166.417 291.813,167.246 292.061 L 168.752 292.512 165.265 295.999 C 134.308 326.957,156.180 379.600,200.000 379.600 C 243.465 379.600,265.608 327.351,235.227 296.477 C 233.454 294.674,232.227 293.198,232.502 293.195 C 233.626 293.184,239.356 290.369,241.006 289.016 C 252.241 279.810,223.795 270.527,191.400 272.828 M207.013 302.803 C 233.038 309.459,236.484 345.207,212.200 356.619 C 187.795 368.088,162.580 342.632,174.147 318.200 C 179.911 306.025,193.930 299.457,207.013 302.803 " stroke="none" fill="#000000" fill-rule="evenodd"></path></g></svg>