<svg id="svg" version="1.1" width="400.04" height="292.85" xmlns="http://www.w3.org/2000/svg" xmlns:xlink="http://www.w3.org/1999/xlink" ><g id="svgg"><path id="path0" d="M65.422 0.646 C 44.513 4.420,28.475 20.186,23.353 42.000 C 22.247 46.710,21.992 119.443,23.083 119.023 C 27.125 117.467,35.537 116.000,40.410 116.000 L 43.562 116.000 43.694 81.900 C 43.823 48.261,43.837 47.758,44.699 44.691 C 47.947 33.127,57.333 24.212,68.797 21.801 C 73.146 20.886,326.877 20.891,331.228 21.806 C 342.812 24.243,352.014 32.993,355.304 44.700 C 356.162 47.755,356.177 48.292,356.306 81.900 L 356.438 116.000 359.590 116.000 C 364.463 116.000,372.875 117.467,376.917 119.023 C 378.118 119.485,377.744 46.663,376.518 41.400 C 371.558 20.096,355.137 4.254,334.248 0.618 C 329.070 -0.283,70.419 -0.257,65.422 0.646 M96.000 46.018 C 87.912 48.105,81.225 53.548,77.593 61.000 C 74.806 66.717,74.813 66.648,74.806 92.700 L 74.800 116.000 85.390 116.000 L 95.981 116.000 96.090 93.670 L 96.200 71.341 97.274 69.719 C 99.598 66.208,97.908 66.370,130.872 66.492 L 159.859 66.600 161.522 67.700 C 164.915 69.946,164.800 69.026,164.800 93.984 L 164.800 116.000 175.600 116.000 L 186.400 116.000 186.386 93.900 C 186.371 70.285,186.211 67.884,184.345 63.244 C 180.812 54.459,173.312 47.926,164.333 45.809 C 159.967 44.780,100.089 44.963,96.000 46.018 M235.488 45.827 C 227.613 47.735,220.205 53.684,216.669 60.940 C 213.791 66.846,213.872 65.992,213.705 92.300 L 213.554 116.000 224.377 116.000 L 235.200 116.000 235.200 93.984 C 235.200 69.025,235.085 69.946,238.479 67.700 L 240.142 66.600 269.600 66.600 L 299.059 66.600 300.465 67.564 C 301.239 68.094,302.306 69.161,302.836 69.934 L 303.800 71.341 303.910 93.670 L 304.019 116.000 314.610 116.000 L 325.200 116.000 325.194 92.700 C 325.187 66.653,325.194 66.722,322.411 61.000 C 318.776 53.527,312.031 48.080,303.836 46.002 C 299.714 44.957,239.714 44.803,235.488 45.827 M35.562 133.613 C 19.552 135.485,6.307 146.706,1.321 162.620 L 0.200 166.200 0.090 208.700 L -0.021 251.200 200.000 251.200 L 400.021 251.200 399.910 208.700 L 399.800 166.200 398.698 162.687 C 393.618 146.492,380.501 135.496,364.000 133.598 C 359.924 133.129,39.576 133.144,35.562 133.613 M365.164 155.558 C 371.328 157.476,376.540 162.987,378.255 169.400 C 378.679 170.982,378.791 177.479,378.795 200.500 L 378.800 229.600 199.990 229.600 L 21.180 229.600 21.290 199.700 C 21.398 170.231,21.412 169.767,22.258 167.533 C 24.406 161.859,29.101 157.372,34.796 155.549 C 38.367 154.406,361.490 154.415,365.164 155.558 M21.200 282.200 L 21.200 292.800 43.200 292.800 L 65.200 292.800 65.200 282.200 L 65.200 271.600 43.200 271.600 L 21.200 271.600 21.200 282.200 M334.800 282.200 L 334.800 292.800 356.800 292.800 L 378.800 292.800 378.800 282.200 L 378.800 271.600 356.800 271.600 L 334.800 271.600 334.800 282.200 " stroke="none" fill="#000000" fill-rule="evenodd"></path></g></svg>