<svg id="svg" version="1.1" width="400.21" height="290.1" xmlns="http://www.w3.org/2000/svg" xmlns:xlink="http://www.w3.org/1999/xlink" ><g id="svgg"><path id="path0" d="M158.991 0.748 C 150.676 4.526,151.463 17.213,160.173 19.811 C 161.742 20.280,164.950 20.400,175.873 20.400 L 189.600 20.400 189.600 30.400 L 189.600 40.400 200.000 40.400 L 210.400 40.400 210.400 30.400 L 210.400 20.400 224.127 20.400 C 235.050 20.400,238.258 20.280,239.827 19.811 C 248.537 17.213,249.324 4.526,241.009 0.748 C 238.513 -0.385,161.487 -0.385,158.991 0.748 M45.600 25.391 C 39.771 27.278,37.011 34.252,39.843 39.937 C 40.931 42.119,75.924 69.643,81.243 72.500 C 91.319 77.912,101.421 64.757,93.474 56.575 C 91.530 54.573,56.231 27.521,53.692 26.087 C 51.556 24.881,48.094 24.583,45.600 25.391 M347.904 25.369 C 345.541 26.212,309.934 53.066,306.526 56.575 C 298.757 64.573,308.496 77.763,318.432 72.699 C 322.349 70.703,358.788 42.362,359.925 40.428 C 364.657 32.374,356.590 22.269,347.904 25.369 M189.600 58.399 C 125.837 61.736,88.683 94.682,76.383 158.794 C 74.559 168.305,72.891 171.821,66.681 179.250 L 64.466 181.899 59.733 182.078 C 48.742 182.493,43.606 191.781,50.269 199.192 C 53.685 202.992,36.476 202.600,200.000 202.600 C 363.524 202.600,346.315 202.992,349.731 199.192 C 356.394 191.781,351.258 182.493,340.267 182.078 L 335.534 181.899 333.319 179.250 C 327.109 171.821,325.441 168.305,323.617 158.794 C 310.080 88.231,264.990 54.453,189.600 58.399 M221.494 79.962 C 268.565 86.389,294.102 112.452,303.591 163.750 C 304.903 170.844,306.247 175.106,308.523 179.393 L 309.908 182.000 200.000 182.000 L 90.092 182.000 91.477 179.393 C 93.564 175.462,95.053 171.031,95.989 165.962 C 106.083 111.300,132.871 84.351,181.811 79.620 C 184.225 79.386,186.830 79.124,187.600 79.038 C 192.118 78.528,215.703 79.172,221.494 79.962 M7.106 82.374 C 1.013 84.342,-1.855 91.321,1.041 97.133 C 2.566 100.191,2.679 100.255,27.024 111.684 L 49.400 122.189 52.400 122.185 C 60.576 122.175,65.245 114.012,61.164 106.866 C 59.543 104.028,59.722 104.126,35.028 92.574 C 11.619 81.624,10.590 81.249,7.106 82.374 M386.200 82.750 C 382.305 84.251,342.191 103.264,340.995 104.177 C 333.534 109.867,338.050 122.176,347.600 122.184 L 350.600 122.186 372.991 111.671 C 397.371 100.223,397.438 100.185,398.959 97.133 C 403.214 88.594,395.016 79.354,386.200 82.750 M162.562 101.911 C 147.322 107.328,122.259 135.114,122.325 146.521 C 122.374 155.082,131.440 159.688,138.600 154.790 C 139.828 153.950,140.805 152.594,142.800 148.965 C 149.308 137.125,158.072 127.964,168.822 121.763 C 174.370 118.563,175.800 116.480,175.800 111.600 C 175.800 104.377,169.205 99.550,162.562 101.911 M67.153 219.117 C 63.446 221.054,62.251 223.166,61.246 229.563 C 60.074 237.028,54.636 243.287,46.600 246.421 C 39.031 249.372,38.633 250.378,38.475 266.917 C 38.309 284.367,38.785 286.268,43.974 288.900 L 46.143 290.000 200.000 290.000 L 353.857 290.000 356.026 288.900 C 361.215 286.268,361.691 284.367,361.525 266.917 C 361.368 250.397,360.934 249.301,353.400 246.401 C 344.609 243.016,338.420 235.047,338.396 227.080 C 338.387 224.013,335.710 220.330,332.400 218.832 C 330.601 218.018,330.526 218.018,199.946 218.009 L 69.291 218.000 67.153 219.117 M320.404 240.600 C 323.346 249.240,330.453 257.722,338.417 262.096 L 340.791 263.400 340.795 266.500 L 340.800 269.600 200.000 269.600 L 59.200 269.600 59.205 266.500 L 59.209 263.400 61.583 262.096 C 69.486 257.756,76.997 248.792,79.597 240.600 C 79.877 239.720,80.182 238.865,80.277 238.699 C 80.371 238.534,134.285 238.444,200.086 238.499 L 319.724 238.600 320.404 240.600 " stroke="none" fill="#000000" fill-rule="evenodd"></path></g></svg>