<svg id="svg" version="1.1" width="400.51" height="390.02" xmlns="http://www.w3.org/2000/svg" xmlns:xlink="http://www.w3.org/1999/xlink" ><g id="svgg"><path id="path0" d="M319.800 0.590 C 317.031 1.197,46.621 76.616,40.610 78.457 C 27.527 82.465,18.285 91.947,14.739 105.000 C 13.575 109.283,13.473 118.837,14.548 122.800 C 18.680 138.031,28.562 173.075,28.798 173.331 C 29.096 173.655,46.676 168.965,47.334 168.387 C 47.517 168.225,46.404 163.617,44.861 158.146 C 43.318 152.676,42.177 148.087,42.327 147.949 C 42.582 147.715,350.108 61.834,351.758 61.537 C 352.830 61.343,379.948 157.831,380.284 163.037 C 380.707 169.564,377.849 175.238,372.345 178.802 C 369.868 180.405,362.597 182.784,362.050 182.169 C 361.869 181.966,359.152 172.530,356.012 161.200 C 347.939 132.070,347.782 131.632,343.136 125.457 C 335.079 114.749,319.545 108.961,306.400 111.769 C 303.597 112.368,29.915 188.680,25.600 190.066 C 8.200 195.654,-3.056 214.420,0.383 232.107 C 1.770 239.236,37.292 365.150,38.826 368.371 C 46.179 383.815,63.548 392.531,80.000 389.033 C 82.811 388.436,352.800 313.169,359.390 311.146 C 376.026 306.038,386.079 292.613,386.158 275.400 L 386.185 269.400 383.472 259.600 C 381.980 254.210,377.735 239.000,374.038 225.800 C 370.342 212.600,367.357 201.749,367.405 201.687 C 367.453 201.625,369.362 201.040,371.646 200.388 C 391.330 194.766,403.296 176.415,399.616 157.493 C 398.227 150.347,362.710 24.450,361.175 21.229 C 353.799 5.750,336.230 -3.014,319.800 0.590 M334.515 21.099 C 337.705 22.595,341.415 25.956,342.904 28.701 C 343.753 30.264,347.380 41.993,347.087 42.229 C 346.843 42.427,38.293 128.419,37.530 128.503 C 36.571 128.607,33.928 120.561,33.357 115.800 C 32.593 109.417,36.883 101.693,42.856 98.702 C 44.147 98.055,100.559 82.104,184.600 58.623 L 324.200 19.619 328.000 19.722 C 331.313 19.812,332.148 19.988,334.515 21.099 M321.015 132.543 C 324.614 134.252,327.808 137.296,329.341 140.475 C 330.336 142.538,365.640 268.323,366.500 272.867 C 367.757 279.511,363.500 287.717,357.146 290.897 C 354.234 292.354,289.114 310.508,288.774 309.957 C 288.632 309.729,287.188 304.763,285.563 298.922 C 283.939 293.081,282.390 288.218,282.122 288.115 C 281.685 287.947,264.039 292.646,263.635 293.037 C 263.544 293.125,264.876 298.241,266.594 304.406 C 268.313 310.570,269.647 315.674,269.560 315.747 C 269.472 315.820,225.670 328.077,172.222 342.985 L 75.043 370.090 71.615 369.926 C 65.780 369.647,59.842 365.956,57.094 360.899 C 55.336 357.663,19.885 230.133,19.681 226.310 C 19.305 219.263,23.421 212.459,29.800 209.577 C 31.124 208.979,221.792 155.572,224.153 155.138 C 224.818 155.016,225.262 156.270,227.953 165.869 C 229.629 171.847,231.136 176.873,231.301 177.037 C 231.707 177.439,250.000 172.321,249.999 171.806 C 249.999 171.583,248.642 166.556,246.984 160.635 C 245.327 154.714,244.112 149.745,244.285 149.593 C 244.514 149.391,298.273 134.262,309.800 131.155 C 312.673 130.380,317.796 131.014,321.015 132.543 M245.252 191.822 C 240.330 193.220,236.231 194.436,236.143 194.524 C 236.055 194.612,237.993 201.891,240.451 210.699 L 244.920 226.713 248.160 225.818 C 261.390 222.161,263.987 221.365,263.859 221.006 C 263.778 220.783,261.752 213.537,259.356 204.904 C 256.960 196.271,254.820 189.224,254.600 189.244 C 254.380 189.264,250.173 190.424,245.252 191.822 M258.937 241.105 C 253.384 242.676,249.731 243.901,249.817 244.163 C 249.896 244.403,251.878 251.530,254.222 260.000 C 256.566 268.470,258.600 275.518,258.742 275.663 C 258.961 275.886,277.109 271.024,277.494 270.639 C 277.569 270.565,275.643 263.379,273.215 254.671 C 270.787 245.962,268.800 238.739,268.800 238.619 C 268.800 238.305,269.068 238.238,258.937 241.105 " stroke="none" fill="#000000" fill-rule="evenodd"></path></g></svg>