<svg id="svg" version="1.1" width="399.98" height="371.66" xmlns="http://www.w3.org/2000/svg" xmlns:xlink="http://www.w3.org/1999/xlink" ><g id="svgg"><path id="path0" d="M127.667 1.041 C 122.304 3.714,121.440 7.445,123.568 18.737 C 124.246 22.333,124.800 25.348,124.800 25.437 C 124.800 25.799,126.601 25.546,135.500 23.938 C 143.849 22.430,144.800 22.179,144.800 21.484 C 144.800 19.186,142.188 6.790,141.352 5.125 C 139.006 0.448,132.659 -1.446,127.667 1.041 M156.000 36.199 C 79.961 43.947,18.810 91.478,3.415 154.800 C -0.199 169.664,-1.141 186.500,1.411 190.623 C 4.710 195.953,12.294 196.830,17.275 192.456 C 21.205 189.005,32.928 182.641,40.600 179.792 C 58.060 173.310,76.119 173.647,90.400 180.721 C 97.932 184.452,101.357 184.047,106.400 178.827 C 116.251 168.632,134.401 159.489,152.400 155.657 C 172.018 151.480,201.720 153.182,218.336 159.437 C 224.174 161.634,226.889 160.702,233.250 154.316 C 249.368 138.135,272.200 132.983,301.200 138.982 C 311.799 141.174,312.936 141.180,316.477 139.056 C 321.523 136.030,322.420 131.350,319.409 123.762 C 300.893 77.093,254.723 44.332,196.800 36.759 C 188.291 35.647,164.610 35.322,156.000 36.199 M184.000 56.578 C 222.606 58.392,261.395 76.979,284.215 104.600 C 286.659 107.559,292.910 116.430,292.694 116.634 C 292.642 116.683,290.890 116.544,288.800 116.325 C 268.669 114.214,246.617 119.336,230.775 129.800 L 226.536 132.600 224.867 127.675 C 214.965 98.448,200.040 75.049,181.600 59.839 C 176.640 55.749,176.830 55.954,178.213 56.173 C 178.866 56.277,181.470 56.459,184.000 56.578 M144.815 61.984 C 167.861 69.705,189.108 92.776,201.376 123.400 C 202.817 126.997,205.600 134.630,205.600 134.984 C 205.600 135.003,202.855 134.622,199.500 134.138 C 166.764 129.416,134.939 135.129,110.264 150.159 C 107.879 151.611,105.826 152.800,105.702 152.800 C 105.357 152.800,105.926 133.933,106.407 129.400 C 109.490 100.385,120.689 76.535,137.526 63.130 C 140.954 60.400,140.365 60.493,144.815 61.984 M102.974 72.441 C 91.760 90.205,85.442 116.382,85.412 145.200 L 85.400 157.000 81.000 156.106 C 63.816 152.615,43.773 155.336,25.799 163.600 C 23.930 164.460,22.400 164.999,22.400 164.799 C 22.400 164.598,23.014 162.039,23.764 159.111 C 32.753 124.039,60.126 92.539,98.208 73.442 C 104.383 70.345,104.284 70.365,102.974 72.441 M160.692 171.823 C 156.449 172.484,148.473 174.359,148.229 174.753 C 148.086 174.984,167.451 280.070,168.194 283.100 L 168.415 284.000 178.854 284.000 C 188.598 284.000,189.281 283.953,189.113 283.300 C 189.013 282.915,184.271 257.535,178.575 226.900 L 168.217 171.200 166.209 171.239 C 165.104 171.260,162.621 171.523,160.692 171.823 M387.128 179.339 C 382.372 180.668,383.611 178.547,364.376 218.295 L 348.264 251.590 289.632 251.695 L 231.000 251.800 229.373 252.671 C 222.320 256.446,221.870 266.452,228.568 270.586 L 230.535 271.800 244.828 272.000 L 259.121 272.200 250.903 285.900 L 242.685 299.600 150.815 299.600 C 68.837 299.600,58.719 299.667,56.849 300.223 C 49.368 302.444,47.180 312.437,53.047 317.588 C 55.860 320.057,55.288 320.000,77.187 320.000 C 88.194 320.000,97.200 320.105,97.200 320.233 C 97.200 320.361,92.145 328.893,85.966 339.194 C 75.204 357.134,74.722 358.024,74.511 360.351 C 73.925 366.812,78.159 371.571,84.513 371.591 C 90.624 371.611,90.253 372.065,107.032 344.031 L 121.400 320.026 220.210 320.013 L 319.019 320.000 333.208 343.698 C 350.517 372.607,349.699 371.600,355.848 371.600 C 361.935 371.600,366.000 367.596,366.000 361.600 C 366.000 358.258,366.288 358.809,352.618 336.030 C 345.898 324.833,340.400 315.523,340.400 315.343 C 340.400 315.163,353.759 287.472,370.087 253.807 C 399.717 192.716,399.774 192.595,399.927 189.768 C 400.325 182.430,394.129 177.381,387.128 179.339 M334.527 279.900 C 332.424 284.245,329.477 290.358,327.979 293.485 C 325.837 297.957,325.057 299.219,324.328 299.396 C 323.817 299.519,310.681 299.571,295.136 299.510 L 266.871 299.400 275.045 285.700 L 283.218 272.000 310.785 272.000 L 338.352 272.000 334.527 279.900 M178.170 337.100 C 178.299 337.705,179.494 344.047,180.825 351.193 C 183.463 365.360,183.873 366.681,186.312 368.877 C 192.804 374.725,203.181 370.214,203.196 361.539 C 203.199 359.770,200.064 341.365,198.999 336.900 L 198.785 336.000 188.361 336.000 L 177.936 336.000 178.170 337.100 " stroke="none" fill="#000000" fill-rule="evenodd"></path></g></svg>