<svg id="svg" version="1.1" width="400.31" height="400.15" xmlns="http://www.w3.org/2000/svg" xmlns:xlink="http://www.w3.org/1999/xlink" ><g id="svgg"><path id="path0" d="M186.000 0.263 C 185.230 0.337,182.530 0.589,180.000 0.824 C 88.106 9.334,12.832 82.581,1.414 174.600 C -14.769 305.014,95.402 415.080,225.600 398.572 C 338.560 384.250,416.527 278.302,397.191 165.400 C 381.835 75.741,307.525 8.150,215.800 0.413 C 211.453 0.046,189.402 -0.065,186.000 0.263 M218.200 25.001 C 302.528 33.921,366.470 99.294,375.368 185.687 L 375.604 187.975 352.902 188.087 L 330.200 188.200 328.000 189.440 C 319.801 194.059,319.839 206.061,328.067 210.618 L 330.200 211.800 352.900 211.913 C 365.385 211.975,375.600 212.155,375.600 212.313 C 375.600 213.989,373.804 227.456,373.002 231.800 C 359.576 304.455,301.652 361.399,228.800 373.563 C 223.326 374.477,213.863 375.590,211.513 375.596 L 210.026 375.600 209.913 353.900 C 209.801 332.408,209.792 332.184,208.919 330.553 C 203.905 321.181,190.477 321.825,186.757 331.616 C 186.049 333.478,186.000 334.971,186.000 354.462 L 186.000 375.315 182.700 375.045 C 119.445 369.865,60.060 325.074,36.503 264.775 C 30.114 248.421,24.400 223.654,24.400 212.314 C 24.400 212.156,33.715 211.976,45.100 211.914 L 65.800 211.800 67.944 210.613 C 76.252 206.011,76.253 193.990,67.946 189.388 L 65.800 188.200 45.098 188.086 L 24.396 187.973 24.632 185.686 C 31.576 118.263,70.857 63.959,131.400 38.084 C 147.502 31.203,173.180 24.800,184.675 24.800 L 185.974 24.800 186.087 46.300 C 186.199 67.586,186.209 67.816,187.081 69.447 C 191.851 78.363,204.149 78.363,208.919 69.447 C 209.792 67.816,209.801 67.592,209.913 46.100 L 210.026 24.400 211.313 24.404 C 212.021 24.407,215.120 24.675,218.200 25.001 M242.468 155.300 L 199.137 198.600 174.236 173.500 C 160.541 159.695,149.169 148.400,148.964 148.400 C 148.463 148.400,132.000 164.901,132.000 165.404 C 132.000 165.623,147.165 180.947,165.700 199.458 L 199.400 233.115 251.174 181.133 L 302.949 129.151 294.374 120.576 L 285.799 112.001 242.468 155.300 " stroke="none" fill="#000000" fill-rule="evenodd"></path></g></svg>