<svg id="svg" version="1.1" width="400.21" height="358.76" xmlns="http://www.w3.org/2000/svg" xmlns:xlink="http://www.w3.org/1999/xlink" ><g id="svgg"><path id="path0" d="M302.800 0.827 C 300.746 1.752,214.761 87.295,211.156 92.000 C 201.628 104.437,201.284 122.880,210.354 135.000 C 211.177 136.100,211.997 137.245,212.177 137.545 C 212.410 137.934,210.004 140.591,203.782 146.818 L 195.060 155.547 199.500 160.273 C 201.943 162.873,205.384 166.425,207.147 168.168 L 210.354 171.335 219.677 162.314 C 237.621 144.949,238.203 144.185,238.196 138.000 C 238.191 133.249,237.439 131.808,232.071 126.255 C 225.424 119.380,224.092 114.247,227.285 107.800 C 227.803 106.754,243.421 90.837,272.423 61.800 C 321.294 12.868,318.518 15.945,318.518 10.734 C 318.518 2.726,310.213 -2.508,302.800 0.827 M18.010 14.641 C 0.692 19.295,-6.133 60.383,6.342 84.886 C 8.340 88.810,100.177 205.166,103.759 208.310 C 107.273 211.396,109.931 211.412,121.000 208.415 L 129.800 206.032 133.501 209.709 L 137.202 213.387 89.068 261.593 C 44.523 306.205,40.826 310.009,39.501 312.600 C 32.073 327.123,36.781 344.080,50.834 353.422 C 60.292 359.710,72.875 360.079,82.704 354.356 C 84.435 353.348,96.769 341.274,132.807 305.308 L 180.614 257.597 224.407 302.245 C 276.718 355.577,274.147 353.072,278.923 355.388 C 308.712 369.837,338.386 331.649,316.267 307.331 C 312.020 302.662,49.425 32.065,44.077 26.846 C 32.666 15.713,25.868 12.530,18.010 14.641 M330.353 28.131 C 327.443 29.213,325.644 30.919,294.139 62.481 C 260.182 96.499,260.490 96.156,260.111 100.371 C 259.329 109.079,268.659 115.272,276.233 111.073 C 279.021 109.527,342.744 45.720,343.816 43.400 C 347.826 34.724,339.135 24.867,330.353 28.131 M163.746 181.930 C 238.796 259.222,300.536 323.109,300.946 323.902 C 304.398 330.567,295.502 339.114,288.875 335.500 C 287.830 334.930,260.228 307.081,213.591 259.540 C 150.529 195.257,139.676 184.359,138.004 183.640 C 134.798 182.261,132.128 182.498,123.000 184.972 C 116.886 186.629,114.891 187.029,114.538 186.670 C 110.021 182.074,26.236 75.346,25.191 72.857 C 21.317 63.625,21.034 45.370,24.675 39.479 C 24.985 38.977,16.557 30.345,163.746 181.930 M357.400 55.434 C 354.971 56.195,289.919 120.678,288.377 123.854 C 283.907 133.055,294.095 143.207,303.200 138.624 C 305.652 137.390,369.917 72.949,371.038 70.600 C 375.232 61.812,366.838 52.477,357.400 55.434 M386.687 81.618 C 385.855 81.824,384.595 82.283,383.887 82.637 C 383.179 82.991,362.620 103.235,338.200 127.624 C 290.870 174.894,292.832 173.084,287.951 174.009 C 282.421 175.058,279.512 173.530,270.800 165.001 C 262.654 157.026,261.394 156.260,256.381 156.229 C 250.972 156.196,250.219 156.746,235.435 171.552 L 222.670 184.335 230.204 192.168 C 234.349 196.475,237.842 200.000,237.966 200.000 C 238.091 200.000,242.279 195.917,247.273 190.927 L 256.353 181.853 260.495 185.827 C 274.972 199.716,295.662 199.901,310.821 186.277 C 319.869 178.144,398.357 99.013,399.172 97.200 C 402.938 88.832,395.421 79.451,386.687 81.618 M118.702 288.299 C 92.258 314.744,71.615 335.081,70.843 335.447 C 64.196 338.604,55.830 330.832,58.614 324.087 C 59.049 323.033,72.823 309.000,105.911 275.902 L 152.595 229.204 158.899 235.499 L 165.204 241.795 118.702 288.299 " stroke="none" fill="#000000" fill-rule="evenodd"></path></g></svg>