<svg id="svg" version="1.1" width="400.01" height="441" xmlns="http://www.w3.org/2000/svg" xmlns:xlink="http://www.w3.org/1999/xlink" ><g id="svgg"><path id="path0" d="M105.094 0.610 C 86.428 4.128,78.413 19.561,85.675 38.000 C 92.830 56.166,114.564 79.136,144.907 100.600 L 149.996 104.200 75.814 178.400 C 17.465 236.763,1.460 252.984,0.825 254.400 C -0.389 257.107,-0.313 261.619,0.991 264.221 C 2.443 267.122,174.171 438.795,176.800 439.975 C 179.455 441.166,183.950 441.103,186.600 439.836 C 189.474 438.463,397.955 229.922,399.175 227.200 C 400.229 224.851,400.230 221.554,399.197 162.672 C 398.411 117.904,398.383 117.109,397.537 115.072 C 396.562 112.723,330.614 46.106,327.334 44.155 C 324.467 42.450,324.086 42.430,277.024 41.607 C 217.584 40.566,215.688 40.566,213.496 41.598 C 212.297 42.161,205.183 49.014,189.236 64.963 L 166.671 87.531 162.601 84.801 C 134.477 65.932,109.449 40.433,105.924 27.060 C 103.275 17.008,139.342 24.081,173.996 40.408 L 181.737 44.056 190.069 35.731 C 194.651 31.153,198.400 27.271,198.400 27.106 C 198.400 26.940,195.192 25.198,191.271 23.236 C 155.989 5.574,123.714 -2.900,105.094 0.610 M270.600 64.404 L 316.200 65.203 345.905 94.907 L 375.610 124.611 376.424 171.187 L 377.237 217.762 279.519 315.481 L 181.801 413.200 104.700 336.100 L 27.600 259.001 98.704 187.896 L 169.809 116.792 175.804 120.205 C 203.431 135.933,232.110 147.092,254.287 150.745 L 260.937 151.840 261.612 153.820 C 269.492 176.945,297.178 188.241,319.435 177.414 C 350.290 162.404,350.719 118.072,320.162 102.401 C 298.095 91.084,270.166 101.942,261.890 125.054 L 260.600 128.657 257.400 128.127 C 240.200 125.279,215.373 115.631,191.455 102.499 L 186.709 99.894 204.853 81.747 C 219.142 67.456,223.210 63.600,223.998 63.602 C 224.549 63.604,245.520 63.964,270.600 64.404 M307.648 121.971 C 320.733 126.906,324.158 143.931,313.965 153.368 C 305.798 160.929,292.049 159.793,286.041 151.059 L 284.878 149.369 287.511 148.003 C 296.477 143.354,301.371 133.326,299.689 123.046 L 299.304 120.693 302.352 120.908 C 304.028 121.026,306.411 121.504,307.648 121.971 M180.200 161.232 C 154.158 166.389,143.831 197.378,161.733 216.645 C 182.856 239.379,220.729 223.165,219.086 192.092 C 218.042 172.371,199.252 157.458,180.200 161.232 M191.641 181.851 C 199.909 185.561,202.095 196.341,195.935 203.024 C 187.683 211.977,172.653 206.151,172.653 194.000 C 172.653 184.130,182.574 177.782,191.641 181.851 M265.800 230.711 C 261.044 231.341,99.438 261.327,98.107 261.826 C 89.289 265.133,91.154 278.998,100.629 280.575 C 101.979 280.800,266.919 250.895,270.428 249.790 C 281.438 246.321,277.282 229.189,265.800 230.711 M177.400 284.432 C 151.496 289.562,141.063 320.471,158.755 339.666 C 179.855 362.559,217.733 346.712,216.281 315.600 C 215.349 295.655,196.604 280.628,177.400 284.432 M188.636 304.965 C 197.094 308.837,199.356 319.475,193.152 326.206 C 186.915 332.972,175.829 331.667,171.468 323.653 C 165.357 312.426,177.074 299.672,188.636 304.965 " stroke="none" fill="#000000" fill-rule="evenodd"></path></g></svg>