<svg id="svg" version="1.1" width="400.23" height="401.89" xmlns="http://www.w3.org/2000/svg" xmlns:xlink="http://www.w3.org/1999/xlink" ><g id="svgg"><path id="path0" d="M373.400 1.236 C 236.339 17.708,130.125 46.441,84.200 79.470 C 19.510 125.995,-6.500 193.335,13.241 263.180 C 18.114 280.418,29.854 305.815,37.051 314.686 L 37.955 315.800 46.978 306.803 C 51.940 301.855,56.000 297.676,56.000 297.517 C 56.000 297.358,54.986 295.557,53.746 293.514 C 12.120 224.930,32.118 144.785,102.600 97.727 C 138.277 73.906,207.047 53.206,305.000 36.801 C 328.959 32.789,372.611 26.478,373.090 26.957 C 373.479 27.345,367.714 67.951,364.593 86.815 C 347.635 189.287,325.119 260.530,297.314 299.689 C 249.466 367.077,184.208 387.774,120.396 355.798 C 109.453 350.314,87.200 335.233,87.200 333.300 C 87.200 333.134,97.788 322.411,110.729 309.471 L 134.258 285.945 190.029 291.205 C 224.003 294.410,246.767 296.393,248.274 296.281 C 260.699 295.353,263.822 278.094,252.581 272.476 C 250.309 271.340,252.708 271.607,203.400 266.994 C 178.760 264.688,158.372 262.756,158.094 262.701 C 157.816 262.645,169.280 250.911,183.570 236.625 L 209.552 210.651 245.032 212.576 C 264.546 213.635,281.533 214.408,282.781 214.295 C 293.937 213.284,297.863 198.211,288.700 191.573 C 285.827 189.492,284.801 189.369,258.783 187.980 C 245.262 187.258,234.119 186.601,234.019 186.519 C 233.920 186.438,250.858 169.323,271.659 148.486 C 313.722 106.351,311.329 109.068,311.374 103.400 C 311.415 98.326,309.023 94.213,304.689 91.906 C 302.115 90.536,295.782 90.587,293.104 92.000 C 290.648 93.296,2.374 381.368,1.100 383.800 C -3.387 392.366,3.438 402.461,13.347 401.917 C 18.618 401.627,17.729 402.378,44.633 375.534 C 66.822 353.394,69.117 351.218,69.633 351.840 C 74.370 357.551,97.273 372.802,111.290 379.579 C 187.765 416.556,267.996 389.654,321.780 309.000 C 354.320 260.202,381.953 161.536,397.171 39.800 C 400.969 9.424,400.941 8.082,396.430 3.570 C 392.410 -0.450,389.706 -0.724,373.400 1.236 M193.894 99.635 C 188.004 101.023,184.394 105.943,184.405 112.571 C 184.411 116.203,187.105 166.039,187.307 166.240 C 187.378 166.311,192.799 161.003,199.355 154.445 L 211.274 142.521 210.409 126.361 C 209.873 116.366,209.329 109.427,208.982 108.174 C 207.277 102.019,200.370 98.110,193.894 99.635 M110.281 133.777 C 106.305 135.195,103.186 138.758,102.324 142.866 C 101.875 145.008,110.561 242.400,111.201 242.400 C 111.313 242.400,116.564 237.225,122.869 230.900 L 134.332 219.400 130.785 181.800 C 128.833 161.120,127.124 143.578,126.985 142.819 C 125.712 135.838,117.287 131.278,110.281 133.777 " stroke="none" fill="#000000" fill-rule="evenodd"></path></g></svg>