<svg id="svg" version="1.1" width="400.17" height="399.73" xmlns="http://www.w3.org/2000/svg" xmlns:xlink="http://www.w3.org/1999/xlink" ><g id="svgg"><path id="path0" d="M314.267 19.507 C 256.200 34.687,239.863 38.825,239.610 38.416 C 239.432 38.128,239.063 36.837,238.789 35.546 C 238.515 34.256,238.270 33.203,238.245 33.207 C 237.291 33.362,174.316 49.951,174.184 50.083 C 174.077 50.189,174.301 51.465,174.682 52.918 C 175.063 54.370,175.291 55.635,175.187 55.728 C 175.084 55.821,137.560 65.654,91.800 77.580 C -5.392 102.908,4.688 100.172,2.949 101.699 C -1.409 105.525,-1.026 112.657,3.709 115.861 C 7.469 118.404,-0.923 120.325,105.327 92.600 C 158.086 78.833,201.753 67.469,202.363 67.347 C 204.483 66.923,210.638 76.561,213.144 84.229 C 219.160 102.638,214.464 120.055,199.276 135.669 L 193.896 141.200 179.948 141.200 L 166.000 141.200 166.000 157.780 L 166.000 174.360 138.300 174.507 C 113.526 174.639,110.283 174.730,107.600 175.363 C 92.362 178.959,80.239 190.611,75.931 205.800 L 75.023 209.000 74.905 285.906 C 74.790 360.110,74.813 362.942,75.545 366.506 C 78.721 381.966,89.823 393.937,105.400 398.699 L 109.000 399.800 200.000 399.800 L 291.000 399.800 294.600 398.699 C 310.177 393.937,321.279 381.966,324.455 366.506 C 325.187 362.942,325.210 360.110,325.095 285.906 L 324.977 209.000 324.069 205.800 C 319.761 190.611,307.638 178.959,292.400 175.363 C 289.717 174.730,286.474 174.639,261.700 174.507 L 234.000 174.360 234.000 157.788 L 234.000 141.217 226.442 141.109 L 218.883 141.000 221.231 137.800 C 236.151 117.463,237.464 87.568,224.400 65.635 C 223.298 63.785,222.462 62.204,222.544 62.123 C 222.625 62.042,260.651 52.077,307.046 39.979 C 405.363 14.341,395.240 17.091,397.022 15.527 C 401.641 11.471,400.905 3.712,395.637 0.931 C 392.099 -0.937,395.058 -1.613,314.267 19.507 M216.000 166.800 L 216.000 174.400 200.000 174.400 L 184.000 174.400 184.000 166.800 L 184.000 159.200 200.000 159.200 L 216.000 159.200 216.000 166.800 M288.080 192.836 C 294.920 194.243,303.196 200.954,305.423 206.900 C 305.673 207.566,300.486 207.600,200.000 207.600 C 99.514 207.600,94.327 207.566,94.577 206.900 C 96.731 201.149,104.591 194.601,111.287 192.980 C 114.119 192.294,284.771 192.155,288.080 192.836 M149.600 267.600 L 149.600 309.600 121.000 309.600 L 92.400 309.600 92.400 267.600 L 92.400 225.600 121.000 225.600 L 149.600 225.600 149.600 267.600 M191.200 287.400 L 191.200 349.200 179.200 349.200 L 167.200 349.200 167.200 287.400 L 167.200 225.600 179.200 225.600 L 191.200 225.600 191.200 287.400 M232.800 287.400 L 232.800 349.200 220.800 349.200 L 208.800 349.200 208.800 287.400 L 208.800 225.600 220.800 225.600 L 232.800 225.600 232.800 287.400 M307.600 267.600 L 307.600 309.600 279.000 309.600 L 250.400 309.600 250.400 267.600 L 250.400 225.600 279.000 225.600 L 307.600 225.600 307.600 267.600 M149.600 347.200 L 149.600 366.800 200.000 366.800 L 250.400 366.800 250.400 347.200 L 250.400 327.600 279.027 327.600 L 307.653 327.600 307.505 344.900 C 307.374 360.189,307.274 362.456,306.640 364.400 C 303.718 373.364,296.571 379.965,287.800 381.800 C 283.586 382.682,116.414 382.682,112.200 381.800 C 103.429 379.965,96.282 373.364,93.360 364.400 C 92.726 362.456,92.626 360.189,92.495 344.900 L 92.347 327.600 120.973 327.600 L 149.600 327.600 149.600 347.200 " stroke="none" fill="#000000" fill-rule="evenodd"></path></g></svg>