<svg id="svg" version="1.1" width="400.16" height="351.18" xmlns="http://www.w3.org/2000/svg" xmlns:xlink="http://www.w3.org/1999/xlink" ><g id="svgg"><path id="path0" d="M113.769 0.567 C 111.947 1.361,109.671 3.503,108.676 5.362 C 107.680 7.224,107.651 8.595,107.959 39.282 L 108.119 55.164 101.559 59.560 C 83.086 71.938,67.578 88.037,57.143 105.669 L 54.380 110.339 51.788 110.616 C 45.783 111.259,36.233 109.517,23.271 105.414 C -2.663 97.204,-6.762 120.804,9.378 185.400 C 17.312 217.155,19.255 222.147,25.653 227.204 C 31.716 231.996,34.720 232.898,45.568 233.178 L 54.136 233.400 56.322 237.200 C 69.231 259.642,90.606 279.925,114.900 292.783 L 119.600 295.271 119.606 313.735 C 119.613 336.638,119.985 338.621,125.338 344.326 C 131.381 350.766,133.176 351.200,153.770 351.200 C 174.106 351.200,176.024 350.776,181.800 345.000 C 187.137 339.663,188.000 336.519,188.000 322.416 L 188.000 311.800 203.400 311.800 L 218.800 311.800 218.806 322.000 C 218.814 335.659,219.721 339.192,224.538 344.326 C 230.581 350.766,232.376 351.200,252.970 351.200 C 273.306 351.200,275.224 350.776,281.000 345.000 C 286.908 339.092,287.200 337.649,287.200 314.361 L 287.200 295.267 291.700 292.903 C 352.591 260.910,381.138 196.171,362.161 133.112 C 361.992 132.550,365.011 130.896,378.747 124.026 C 399.715 113.540,400.244 113.100,399.939 106.390 C 399.674 100.571,396.235 97.126,390.425 96.862 L 387.387 96.724 370.886 104.962 C 361.811 109.493,354.254 113.198,354.093 113.195 C 353.932 113.193,352.990 111.626,352.000 109.715 C 332.049 71.190,287.284 41.167,239.400 34.196 C 227.113 32.408,185.407 31.689,175.886 33.102 L 173.572 33.445 170.625 29.823 C 155.621 11.384,135.838 -0.049,119.048 0.016 C 116.577 0.025,114.520 0.240,113.769 0.567 M132.121 24.035 C 141.186 28.554,151.138 37.633,158.800 48.372 C 164.546 56.426,163.656 55.720,167.200 55.033 C 177.958 52.949,215.954 52.034,229.400 53.536 C 305.425 62.028,357.802 123.801,345.955 191.000 C 339.202 229.298,309.605 264.292,270.503 280.207 L 266.806 281.711 266.703 306.156 L 266.600 330.600 253.448 330.706 C 244.075 330.781,240.138 330.680,239.748 330.357 C 239.297 329.983,239.200 326.284,239.200 309.524 C 239.200 290.305,239.160 289.158,238.500 289.352 C 230.356 291.747,178.063 291.739,168.510 289.342 L 167.607 289.115 167.504 309.858 L 167.400 330.600 154.248 330.706 C 144.875 330.781,140.938 330.680,140.548 330.357 C 140.095 329.981,140.000 325.712,140.000 305.797 L 140.000 281.693 137.700 280.784 C 111.024 270.243,86.259 248.978,74.595 226.600 C 71.122 219.937,69.042 216.997,66.520 215.185 C 63.278 212.857,62.925 212.800,51.797 212.800 C 37.818 212.800,38.157 212.990,35.515 203.666 C 25.946 169.901,17.315 124.884,20.656 126.166 C 27.809 128.911,45.645 131.580,53.000 131.006 C 63.508 130.186,68.656 127.020,73.588 118.345 C 85.163 97.984,104.974 79.214,125.725 68.946 L 128.738 67.455 128.506 44.928 C 128.378 32.537,128.402 22.400,128.558 22.400 C 128.714 22.400,130.317 23.136,132.121 24.035 M189.836 73.029 C 181.339 76.142,180.934 88.226,189.200 91.968 C 190.945 92.758,191.723 92.783,214.621 92.791 L 238.243 92.800 240.322 91.764 C 248.209 87.834,247.564 75.843,239.314 73.033 C 236.672 72.132,192.292 72.129,189.836 73.029 M119.152 99.867 C 111.981 102.261,108.333 111.183,111.712 118.064 C 115.944 126.683,128.344 127.817,134.015 120.105 C 141.570 109.833,131.277 95.818,119.152 99.867 " stroke="none" fill="#000000" fill-rule="evenodd"></path></g></svg>