<svg id="svg" version="1.1" width="400.26" height="347.92" xmlns="http://www.w3.org/2000/svg" xmlns:xlink="http://www.w3.org/1999/xlink" ><g id="svgg"><path id="path0" d="M286.400 0.783 C 253.377 7.846,241.255 49.255,265.200 73.200 C 282.837 90.837,312.926 89.558,328.512 70.508 C 354.420 38.840,326.283 -7.747,286.400 0.783 M303.089 20.790 C 317.168 25.743,323.181 42.803,315.200 55.152 C 302.905 74.174,273.656 66.499,272.496 43.947 C 271.658 27.657,287.824 15.420,303.089 20.790 M58.600 38.549 C 51.291 42.004,51.334 52.597,58.672 56.241 C 60.151 56.976,62.046 57.000,118.000 57.000 L 175.800 57.000 177.427 56.129 C 184.230 52.488,184.670 42.998,178.221 39.011 L 176.263 37.800 118.431 37.702 L 60.600 37.603 58.600 38.549 M5.384 78.545 C -1.604 81.806,-2.064 91.682,4.581 95.791 L 6.537 97.000 62.549 97.105 C 112.387 97.199,118.767 97.142,120.437 96.588 C 127.923 94.101,129.028 83.219,122.221 79.011 L 120.263 77.800 63.831 77.702 L 7.400 77.603 5.384 78.545 M216.817 79.646 C 199.663 81.168,179.662 85.102,154.877 91.828 C 145.165 94.464,141.129 96.743,137.360 101.719 C 125.540 117.325,134.307 139.034,153.641 142.034 C 157.533 142.637,159.973 142.319,169.200 140.004 C 187.461 135.423,214.193 130.000,218.515 130.000 C 219.359 130.000,207.995 151.725,199.965 165.461 C 181.883 196.392,167.424 216.489,157.531 224.438 L 156.062 225.618 152.094 224.038 C 140.558 219.441,120.759 210.309,107.800 203.606 C 93.934 196.433,86.745 195.748,76.817 200.649 C 58.921 209.485,56.537 235.002,72.485 247.002 C 77.987 251.142,108.638 265.624,125.400 272.004 C 149.730 281.265,162.988 284.038,171.400 281.625 C 188.980 276.584,208.037 263.383,223.117 245.800 C 225.004 243.600,226.839 241.480,227.195 241.090 C 228.268 239.913,253.120 250.242,263.400 256.137 L 267.800 258.660 269.103 263.830 C 273.904 282.881,276.358 298.980,276.780 314.200 C 277.034 323.373,277.245 326.260,277.790 328.000 C 285.342 352.135,317.955 354.729,329.188 332.087 C 335.222 319.926,331.026 279.413,319.423 237.800 C 317.115 229.522,316.791 228.911,311.104 222.128 C 304.093 213.765,286.406 200.903,271.600 193.400 C 269.726 192.450,269.583 192.285,270.067 191.621 C 276.316 183.037,283.316 171.380,287.215 163.064 C 289.627 157.921,289.439 158.046,293.037 159.175 C 322.418 168.387,380.335 161.209,393.412 146.734 C 410.843 127.440,391.519 97.424,367.049 105.786 C 334.849 116.790,305.295 115.348,290.056 102.031 C 269.368 83.953,246.623 77.001,216.817 79.646 M240.080 99.397 C 252.953 101.098,265.665 107.120,276.759 116.773 C 285.058 123.994,291.212 127.313,301.200 129.951 C 319.718 134.843,347.013 132.991,371.367 125.190 C 376.750 123.466,379.821 124.744,380.290 128.903 C 380.685 132.407,379.412 133.679,373.334 135.858 C 344.988 146.019,312.174 146.502,290.000 137.086 C 281.138 133.322,277.143 135.327,273.204 145.516 C 268.387 157.974,261.485 169.910,251.180 183.600 C 245.078 191.707,244.800 192.230,244.800 195.606 C 244.800 201.056,246.343 202.790,255.071 207.146 C 278.966 219.071,297.479 233.120,299.817 241.100 C 308.082 269.310,314.321 310.358,312.015 321.351 C 310.789 327.195,304.587 329.862,299.907 326.556 C 297.255 324.682,296.583 322.935,296.694 318.200 C 296.897 309.521,295.603 295.820,293.388 283.200 C 291.345 271.563,286.908 252.268,285.615 249.400 C 282.747 243.036,265.546 233.628,236.800 222.700 C 222.174 217.140,220.259 217.327,214.543 224.875 C 198.393 246.201,174.432 263.689,162.800 262.639 C 147.460 261.254,85.556 235.119,82.458 228.719 C 80.595 224.871,81.848 220.660,85.492 218.525 C 89.069 216.429,89.701 216.607,103.800 223.681 C 129.058 236.353,153.623 246.800,158.164 246.800 C 165.297 246.800,181.646 230.585,195.670 209.600 C 214.751 181.049,231.959 150.322,242.042 126.800 C 245.688 118.294,244.419 112.767,238.227 110.184 C 231.298 107.294,194.936 112.663,162.400 121.380 C 156.006 123.093,153.237 122.348,151.993 118.580 C 150.793 114.944,152.940 112.858,159.829 110.966 C 183.614 104.436,203.844 100.501,221.000 99.068 C 225.630 98.681,236.018 98.861,240.080 99.397 M71.899 118.171 C 64.350 120.865,63.307 131.540,70.179 135.789 L 72.136 137.000 92.168 137.119 C 114.189 137.250,114.495 137.223,117.197 134.910 C 122.760 130.148,121.496 121.463,114.800 118.432 C 112.509 117.395,74.718 117.165,71.899 118.171 M43.200 157.981 C 37.379 158.174,36.402 158.306,34.923 159.096 C 28.207 162.686,28.483 172.804,35.400 176.537 L 37.000 177.400 103.000 177.282 C 148.287 177.201,169.528 177.029,170.683 176.734 C 179.462 174.497,179.590 160.681,170.857 158.064 C 169.252 157.584,57.374 157.511,43.200 157.981 " stroke="none" fill="#000000" fill-rule="evenodd"></path></g></svg>