<svg id="svg" version="1.1" width="400" height="473.8" xmlns="http://www.w3.org/2000/svg" xmlns:xlink="http://www.w3.org/1999/xlink" ><g id="svgg"><path id="path0" d="M19.199 0.932 C 10.385 3.542,3.473 10.500,0.912 19.340 L 0.000 22.491 -0.000 237.000 L -0.000 451.509 0.912 454.660 C 3.392 463.220,10.208 470.254,18.600 472.913 L 21.400 473.800 200.000 473.800 L 378.600 473.800 381.400 472.913 C 389.296 470.411,396.168 463.616,398.911 455.600 L 399.800 453.000 399.901 237.833 L 400.003 22.665 399.180 19.616 C 396.781 10.725,389.641 3.514,380.660 0.912 L 377.509 0.000 199.855 0.021 L 22.200 0.043 19.199 0.932 M371.200 237.000 L 371.200 445.200 200.000 445.200 L 28.800 445.200 28.800 237.000 L 28.800 28.800 200.000 28.800 L 371.200 28.800 371.200 237.000 M138.400 65.438 C 123.574 69.426,121.146 90.346,134.679 97.492 C 138.911 99.726,136.586 99.656,202.800 99.523 L 264.200 99.400 266.903 98.119 C 280.878 91.500,280.406 71.698,266.137 65.943 L 263.800 65.000 202.200 64.923 C 148.914 64.857,140.303 64.926,138.400 65.438 M138.785 216.419 C 121.743 251.000,107.742 279.542,107.671 279.846 C 107.561 280.317,121.768 280.400,202.004 280.400 C 257.599 280.400,296.412 280.252,296.333 280.041 C 295.679 278.279,260.959 208.400,260.738 208.400 C 260.578 208.400,252.865 216.185,243.600 225.700 C 234.334 235.215,226.628 243.043,226.476 243.096 C 226.324 243.149,213.745 223.349,198.522 199.096 C 183.299 174.843,170.602 154.673,170.307 154.272 C 169.830 153.625,166.350 160.485,138.785 216.419 M78.086 319.156 C 62.560 324.519,62.636 346.597,78.200 352.271 C 80.535 353.122,197.881 353.642,203.184 352.825 C 221.142 350.058,223.017 324.120,205.627 319.035 C 202.042 317.987,81.139 318.102,78.086 319.156 M259.831 319.236 C 242.999 325.061,245.050 349.932,262.600 352.803 C 266.023 353.363,319.164 353.327,322.227 352.763 C 338.685 349.730,341.639 327.050,326.510 319.883 L 323.800 318.600 293.000 318.508 C 262.869 318.419,262.149 318.435,259.831 319.236 M79.242 376.233 C 63.722 380.407,61.840 401.542,76.349 408.713 L 79.358 410.200 185.979 410.317 C 305.152 410.449,295.177 410.686,299.939 407.608 C 312.611 399.418,309.074 379.418,294.354 376.024 C 291.257 375.310,81.918 375.513,79.242 376.233 " stroke="none" fill="#000000" fill-rule="evenodd"></path></g></svg>