<svg id="svg" version="1.1" width="400" height="331.28" xmlns="http://www.w3.org/2000/svg" xmlns:xlink="http://www.w3.org/1999/xlink" ><g id="svgg"><path id="path0" d="M35.200 0.783 C 19.988 4.037,7.570 15.005,2.261 29.875 C -0.154 36.641,-0.020 29.672,0.097 142.600 L 0.205 245.800 1.301 249.523 C 6.306 266.524,19.586 278.611,36.744 281.782 C 41.840 282.724,358.160 282.724,363.256 281.782 C 380.414 278.611,393.694 266.524,398.699 249.523 L 399.795 245.800 399.903 142.600 C 400.020 29.672,400.154 36.641,397.739 29.875 C 392.340 14.753,379.415 3.548,363.996 0.623 C 358.516 -0.416,40.084 -0.261,35.200 0.783 M359.800 23.004 C 368.246 24.785,375.215 31.754,376.996 40.200 C 377.874 44.363,377.888 237.975,377.011 242.115 C 375.347 249.968,369.386 256.383,361.400 258.913 L 358.600 259.800 200.000 259.800 L 41.400 259.800 38.600 258.913 C 30.614 256.383,24.653 249.968,22.989 242.115 C 22.112 237.975,22.126 44.363,23.004 40.200 C 24.765 31.853,31.726 24.818,40.000 23.027 C 44.016 22.157,355.679 22.135,359.800 23.004 M194.600 65.439 C 171.210 67.791,154.803 72.893,137.168 83.296 C 122.376 92.023,102.588 110.230,100.592 116.951 C 96.772 129.816,112.598 137.362,121.000 126.681 C 123.486 123.521,132.230 114.881,136.000 111.860 C 181.677 75.258,245.852 81.141,284.893 125.507 C 289.894 131.190,290.940 131.793,295.800 131.797 C 305.976 131.805,310.694 121.109,304.120 112.936 C 285.345 89.594,257.340 72.940,227.571 67.415 C 218.977 65.820,201.331 64.762,194.600 65.439 M197.000 121.863 C 172.691 124.753,152.627 137.138,141.000 156.431 L 139.000 159.749 139.003 163.375 C 139.009 171.429,145.750 176.522,153.369 174.229 C 156.437 173.306,157.866 172.045,160.883 167.600 C 181.702 136.925,224.811 136.571,245.525 166.904 C 249.851 173.239,252.109 174.831,256.801 174.853 C 265.705 174.896,271.039 166.193,266.991 158.226 C 255.386 135.381,223.338 118.731,197.000 121.863 M200.000 176.030 C 188.373 177.996,181.134 190.985,185.470 202.102 C 190.533 215.082,207.740 218.493,217.348 208.420 C 230.206 194.941,218.410 172.917,200.000 176.030 M0.000 320.000 L 0.000 331.200 200.000 331.200 L 400.000 331.200 400.000 320.000 L 400.000 308.800 200.000 308.800 L 0.000 308.800 0.000 320.000 " stroke="none" fill="#000000" fill-rule="evenodd"></path></g></svg>